<svg width="172" height="172" xmlns="http://www.w3.org/2000/svg">

 <g>
  <title>background</title>
  <rect fill="none" id="canvas_background" height="402" width="582" y="-1" x="-1"/>
 </g>
 <g>
  <title>Layer 1</title>
  <path id="svg_1" d="m127.64,2.48c-13.68,31.76 -27.36,63.52 -41.04,95.28c-0.2,-0.16 -0.39,-0.33 -0.61,-0.41c-0.26,-0.09 -0.57,-0.08 -0.86,0c-0.18,0.05 -0.37,0.13 -0.53,0.15c-0.85,0.1 -1.26,-1.27 -1.63,-2.36c-0.41,-1.2 -0.78,-2.05 -0.84,-3.07c-0.02,-0.56 0.04,-1.18 -0.21,-1.74c-0.07,-0.16 -0.17,-0.32 -0.31,-0.41c-0.18,-0.12 -0.42,-0.12 -0.62,-0.12c-0.08,-5.21 -2.91,-9.57 -7.64,-11.76c-0.09,1.2 -0.17,2.41 -0.25,3.61c2.3,1.45 3.85,3.69 4.39,6.35c0.55,2.67 0,5.33 -1.55,7.57c-1.35,-0.76 -2.71,-1.52 -4.06,-2.27c-0.09,1.09 -0.17,2.19 -0.26,3.29c0.67,0.37 1.34,0.75 2.01,1.12c1.84,1.03 3.68,2.06 5.52,3.09c0.75,0.33 1.5,0.67 2.05,0.93c0.56,0.27 0.92,0.46 1.3,0.68c0.38,0.21 0.78,0.44 1.18,0.67c0.4,0.22 0.8,0.44 1.29,0.69c0.5,0.25 1.1,0.53 1.25,1s-0.15,1.12 -0.15,1.67c0.01,0.55 0.33,1 0.85,1.24s1.25,0.26 1.56,0.09c0.3,-0.17 0.17,-0.54 -0.08,-0.94s-0.62,-0.83 -0.53,-1.26c0.08,-0.42 0.62,-0.82 1.17,-0.95c0.55,-0.12 1.11,0.05 1.57,0.28c0.46,0.22 0.81,0.52 1.26,0.85c0.46,0.32 1.01,0.68 1.14,1.16c0.12,0.47 -0.18,1.06 -0.63,1.25c-0.46,0.19 -1.07,-0.03 -1.53,-0.33c-0.46,-0.29 -0.78,-0.66 -1.09,-1.03c-0.04,0.8 0.12,1.57 0.48,2.15c0.27,0.44 0.66,0.77 1.11,0.97c0.57,0.25 1.23,0.3 2.07,0.1c0.29,-0.07 0.6,-0.17 0.72,-0.06c0.08,0.07 0.08,0.25 0.08,0.42c0.01,1.2 0.17,2.21 0.13,3.32c-0.06,1.55 -0.51,3.31 -1.58,4.48c-0.34,0.38 -0.76,0.7 -1.21,0.9c-0.98,0.44 -2.14,0.32 -3.27,-0.12c-0.77,-0.3 -1.53,-0.75 -1.74,-1.41c-0.13,-0.39 -0.06,-0.85 0,-1.31c-0.74,0.46 -1.47,0.93 -1.72,1.58c-0.22,0.56 -0.09,1.26 0.29,1.99c0.14,0.28 0.31,0.57 0.25,0.75c-0.06,0.2 -0.39,0.28 -0.68,0.4c-0.89,0.34 -1.5,0.91 -1.98,1.43c-0.65,0.71 -1.04,1.35 -1.33,2.94c-0.1,0.53 -0.19,1.18 -0.03,1.09c0.06,-0.04 0.18,-0.21 0.28,-0.37c0.31,-0.46 0.54,-0.76 0.8,-1.11c0.3,-0.38 0.63,-0.82 1.14,-1.02c0.37,-0.14 0.83,-0.16 1.1,0.03c0.33,0.22 0.38,0.74 0.43,1.25c0.47,-0.79 0.93,-1.58 1.54,-2.08c0.35,-0.29 0.75,-0.48 1.27,-0.76c0.68,-0.37 1.57,-0.88 1.86,-0.46c0.09,0.13 0.13,0.35 0.08,0.53c-0.06,0.25 -0.27,0.43 -0.48,0.6c-0.43,0.35 -0.88,0.68 -1.34,1.02c-1.34,0.97 -2.81,1.93 -4.32,2.43c-1.19,0.4 -2.41,0.52 -3.78,0.67c-1.31,0.15 -2.75,0.33 -3.61,-0.76c-0.2,-0.26 -0.37,-0.58 -0.23,-0.84c0.12,-0.21 0.43,-0.38 0.61,-0.48c-0.3,-0.26 -0.88,-0.32 -1.28,-0.27c-0.32,0.04 -0.51,0.15 -0.71,0.36c-0.23,0.24 -0.46,0.61 -0.7,0.63c-0.2,0.03 -0.41,-0.19 -0.59,-0.39c-0.66,-0.7 -0.94,-1.14 -1.25,-1.71c-0.78,-1.45 -1.67,-3.76 -2.31,-6.43c-0.09,-0.39 -0.17,-0.78 -0.25,-1.17c-0.26,-1.33 -0.45,-2.72 -0.54,-4.03c-0.05,-0.79 -0.07,-1.56 0.24,-2.16c0.2,-0.41 0.55,-0.74 0.9,-1.07c-0.36,-0.16 -0.73,-0.32 -1.09,-0.22c-0.31,0.1 -0.63,0.39 -0.91,0.31c-0.13,-0.03 -0.25,-0.14 -0.36,-0.24c-0.17,-0.17 -0.32,-0.34 -0.44,-0.52c-0.51,-0.74 -0.63,-1.74 -0.63,-2.69c0.04,-0.8 0.09,-1.6 0.14,-2.41c3.55,0.26 6.93,-0.88 9.61,-3.23c-1.04,-0.59 -2.07,-1.17 -3.11,-1.75c-1.85,1.27 -4.01,1.86 -6.25,1.69c0.13,-1.66 0.26,-3.33 0.38,-5c-0.96,-0.54 -1.92,-1.08 -2.88,-1.62c-0.15,1.98 -0.3,3.97 -0.45,5.95c-2.57,-1.02 -4.52,-2.99 -5.53,-5.56c-0.85,-2.19 -0.9,-4.52 -0.16,-6.69c0.13,-0.39 0.29,-0.77 0.47,-1.15c-0.96,-0.54 -1.92,-1.08 -2.88,-1.62c-3.37,6.68 -1.13,13.82 5.46,17.38c0,0.03 0,0.05 0,0.06c0,0.22 -0.07,0.26 -0.15,0.27c-0.11,0 -0.24,-0.05 -0.36,-0.1c-0.9,-0.39 -1.62,-0.85 -2.33,-1.37c-0.64,-0.47 -1.25,-1 -1.73,-1.9c-0.11,0.18 -0.35,0.67 -0.77,0.89c-0.36,0.19 -0.85,0.19 -1.25,0.02c-0.4,-0.16 -0.71,-0.5 -0.89,-0.87c-0.13,-0.28 -0.2,-0.59 -0.26,-0.89c-0.18,0.13 -0.36,0.26 -0.49,0.42c-0.19,0.21 -0.27,0.47 -0.35,0.83c-0.13,0.63 -0.23,1.56 -0.63,1.45c-0.1,-0.02 -0.23,-0.12 -0.35,-0.2c-0.49,-0.33 -1.03,-0.44 -1.56,-0.41c-0.25,0.02 -0.51,0.07 -0.77,0.13c0.23,0.36 0.45,0.72 0.66,1.06c0.28,0.44 0.53,0.84 1.14,1.16c0.35,0.17 0.8,0.32 0.75,0.51c-0.03,0.11 -0.24,0.24 -0.43,0.31c-0.35,0.14 -0.64,0.14 -0.94,0.14c0.49,0.62 0.99,1.23 2.05,1.54c0.62,0.18 1.42,0.26 1.42,0.44c-0.01,0.14 -0.54,0.34 -1.06,0.54c0.19,0.29 0.38,0.59 0.62,0.76c0.39,0.27 0.89,0.21 1.58,0.23c0.73,0.03 1.66,0.16 1.64,0.38c-0.02,0.16 -0.56,0.36 -1.1,0.56c0.81,0.35 1.62,0.7 2.45,0.78c1.11,0.1 2.27,-0.26 3.24,-1.08c0.34,-0.28 0.65,-0.61 0.94,-0.69c0.56,-0.16 1.09,0.56 1.82,1.23c0.71,0.65 1.63,1.25 1.29,1.69c-0.1,0.13 -0.3,0.25 -0.44,0.44c-0.2,0.29 -0.25,0.75 -0.28,1.11c-0.03,0.28 -0.05,0.49 -0.13,0.5c-0.13,0 -0.43,-0.59 -0.77,-1.03c-0.67,-0.9 -1.48,-1.12 -2.31,-1.16c-0.87,-0.05 -1.78,0.1 -2.47,0.65c-0.67,0.54 -1.14,1.46 -1.16,2.3c-0.02,0.91 0.47,1.72 1.32,2.21c0.74,0.43 1.75,0.61 2.39,0.2c0.37,-0.24 0.62,-0.7 0.86,-1.15c-0.27,0 -0.54,0.01 -0.81,0.01c-0.33,0 -0.67,-0.01 -0.98,-0.17c-0.4,-0.2 -0.75,-0.66 -0.77,-1.12c-0.02,-0.47 0.29,-0.94 0.68,-1.11c0.5,-0.23 1.14,0.03 1.56,0.41c0.53,0.5 0.72,1.2 0.91,1.88c0.28,0.98 0.57,1.91 0.86,2.87c0.43,1.44 0.84,2.96 1.46,4.36c0.72,1.62 1.71,3.08 2.82,4.39c0.83,0.99 1.73,1.89 2.93,2.66c0.35,0.23 0.73,0.44 0.93,0.76c0.33,0.52 0.21,1.33 0.48,1.89c0.19,0.41 0.59,0.69 0.99,0.97c0.02,-0.22 0.04,-0.44 0.1,-0.66c0.1,-0.37 0.33,-0.73 0.63,-0.93c0.25,-0.16 0.55,-0.2 0.89,-0.23c0.36,-0.03 0.76,-0.04 0.96,0.15c0.19,0.18 0.2,0.54 0.3,0.87c0.09,0.31 0.25,0.6 0.54,0.64c0.34,0.05 0.86,-0.24 0.96,-0.1c0.07,0.09 -0.04,0.37 -0.11,0.63c-0.19,0.7 -0.08,1.23 0.08,1.77c0.2,0.7 0.47,1.43 0.77,2.09c0.33,0.72 0.7,1.38 1.11,2.08c0.44,0.73 0.94,1.53 1.36,2.19c0.24,0.39 0.46,0.73 0.78,1.23c0.17,0.26 0.37,0.56 0.28,0.78c-0.05,0.11 -0.18,0.2 -0.29,0.29c-0.17,0.14 -0.3,0.29 -0.4,0.46c-0.34,0.54 -0.45,1.25 -0.41,1.92c0.07,1.02 0.47,1.93 0.86,2.86c0.67,1.6 1.31,3.23 2.03,4.81c2.66,-4.99 3.04,-6.58 2.97,-8.02c-0.02,-0.44 -0.08,-0.87 -0.38,-1.44c-0.16,-0.32 -0.39,-0.67 -0.67,-0.98c-0.44,-0.47 -0.97,-0.81 -1.7,-1.03c-0.33,-0.09 -0.71,-0.16 -0.8,-0.48c-0.03,-0.1 -0.03,-0.22 0.02,-0.29c0.06,-0.07 0.16,-0.09 0.26,-0.11c0.6,-0.09 1.12,-0.04 1.63,0.13c0.32,0.1 0.64,0.25 0.92,0.47c0.18,0.14 0.34,0.32 0.46,0.48c0.08,0.11 0.14,0.22 0.17,0.42c0.02,0.15 0.03,0.35 0.04,0.55c0.08,-0.01 0.17,-0.02 0.26,-0.03c0.3,-0.06 0.56,-0.2 0.73,-0.41c0.23,-0.27 0.32,-0.65 0.23,-1.03c-0.06,-0.27 -0.21,-0.53 -0.13,-0.73c0.04,-0.11 0.15,-0.2 0.25,-0.28c0.31,-0.27 0.57,-0.51 0.81,-0.79c0.63,-0.72 1.06,-1.61 1.18,-2.59c0.04,-0.3 0.05,-0.6 0.04,-0.89c-0.02,-0.66 -0.13,-1.26 -0.26,-1.85c-0.08,-0.37 -0.17,-0.74 -0.25,-1.32c-0.08,-0.53 -0.16,-1.23 0.32,-1.49c0.14,-0.07 0.33,-0.11 0.39,-0.07c0.11,0.06 -0.09,0.32 -0.18,0.57c-0.18,0.46 -0.03,0.88 0.21,1.18c0.38,0.47 1.01,0.62 1.52,0.42c0.62,-0.26 1.05,-1.06 1.09,-1.83c0.04,-0.75 -0.28,-1.46 -0.8,-1.81c-0.63,-0.42 -1.54,-0.28 -2.18,0.05c-0.39,0.2 -0.68,0.47 -0.95,0.92c-0.16,0.27 -0.32,0.6 -0.37,0.95c-0.07,0.44 0.02,0.91 -0.03,1.32c-0.03,0.25 -0.12,0.47 -0.2,0.7c-0.09,0.03 -0.19,0.02 -0.29,-0.01c-0.26,-0.07 -0.44,-0.25 -0.61,-0.43c-0.28,-0.28 -0.56,-0.57 -0.86,-0.77c-0.26,-0.17 -0.53,-0.27 -0.84,-0.36c-0.47,-0.13 -1.05,-0.22 -1.58,-0.29c-0.52,-0.07 -0.99,-0.11 -1.65,-0.17c-0.32,-0.03 -0.68,-0.07 -0.84,0.11c-0.15,0.15 -0.15,0.47 0.06,0.57c0.04,0.02 0.09,0.03 0.14,0.05c0.16,0.08 0.21,0.3 0.21,0.5c-0.01,0.17 -0.05,0.32 -0.14,0.39c-0.13,0.09 -0.35,0.04 -0.55,0.01c-0.3,-0.06 -0.55,-0.08 -0.83,-0.04c-0.12,0.01 -0.25,0.04 -0.34,0.13c-0.15,0.16 -0.17,0.51 -0.01,0.64c0.03,0.03 0.08,0.05 0.13,0.06c0.11,0.01 0.27,-0.05 0.34,0.06c0.07,0.1 0.07,0.35 -0.09,0.47c-0.15,0.13 -0.45,0.13 -0.75,0.12c-0.01,-0.08 -0.03,-0.17 -0.04,-0.29c-0.04,-0.21 -0.09,-0.53 -0.12,-0.83c-0.05,-0.55 -0.01,-1.06 0.09,-1.56c0.08,-0.47 0.22,-0.94 0.35,-1.4c1.62,-0.07 3.22,-0.36 4.76,-0.87c0.52,0.6 1.01,1.24 1.69,1.5c0.46,0.17 1,0.17 1.57,-0.35c0.2,-0.19 0.4,-0.44 0.31,-0.5c-0.08,-0.04 -0.37,0.04 -0.56,0.02c-0.3,-0.03 -0.35,-0.32 -0.27,-0.6c0.07,-0.25 0.25,-0.47 0.43,-0.67c0.7,-0.79 1.43,-1.19 2.16,-1.63c1.01,-0.62 2.01,-1.3 2.9,-2c0.52,-0.42 1,-0.85 1.48,-1.36c-0.07,0.46 -0.14,0.93 0,1.31c0.16,0.39 0.55,0.69 0.94,0.99c14.89,-31.84 29.79,-63.68 44.68,-95.52c-4.36,-9.19 -8.73,-18.37 -13.1,-27.56zm-40.85,99.5c-0.47,0 -0.86,-0.39 -0.86,-0.87s0.39,-0.86 0.86,-0.86c0.48,0 0.87,0.38 0.87,0.86c0,0.48 -0.39,0.87 -0.87,0.87zm4.69,2.01c-0.47,0 -0.86,-0.39 -0.86,-0.87s0.39,-0.86 0.86,-0.86c0.48,0 0.87,0.38 0.87,0.86s-0.39,0.87 -0.87,0.87zm-21.36,18.77c-0.07,0.08 -0.31,0.03 -0.52,-0.08c-0.53,-0.28 -0.84,-0.87 -1.05,-1.26c-0.17,-0.33 -0.27,-0.5 -0.39,-0.74c-0.17,-0.35 -0.37,-0.83 -0.59,-1.36c-0.16,-0.37 -0.31,-0.75 -0.24,-1.08c0.08,-0.33 0.39,-0.59 0.52,-0.87c0.16,-0.35 0.02,-0.72 -0.01,-1.27c-0.02,-0.56 0.06,-1.31 -0.12,-1.31c-0.14,0 -0.41,0.38 -0.62,0.73c-0.11,0.2 -0.21,0.4 -0.3,0.45c-0.21,0.12 -0.4,-0.6 -0.57,-1.17c-0.26,-0.87 -0.48,-1.39 -0.33,-2c0.09,-0.33 0.28,-0.69 0.3,-1.06c0.02,-0.28 -0.07,-0.56 -0.01,-0.8c0.01,-0.06 0.04,-0.12 0.08,-0.18c0.05,-0.08 0.12,-0.15 0.2,-0.21c0.51,1.18 1.02,2.36 1.45,3.62c0.38,1.09 0.7,2.23 0.95,3.31c0.11,0.49 0.21,0.96 0.29,1.41c0.18,0.99 0.29,1.86 0.87,3.37c0.07,0.2 0.16,0.41 0.09,0.5zm13.97,20.23c0.19,0 0.4,0.88 0.47,1.96c0.08,1.09 -0.01,1.98 -0.2,1.99c-0.18,0.02 -0.39,-0.86 -0.47,-1.95c-0.07,-1.09 0.02,-1.98 0.2,-2zm7.33,-12.39c0.02,-0.03 0.06,-0.05 0.09,-0.08c0.09,0.13 0.17,0.26 0.34,0.32c0.17,0.06 0.43,0.05 0.45,0.1c0.03,0.07 -0.29,0.23 -0.54,0.18c-0.27,-0.06 -0.46,-0.36 -0.34,-0.52zm-6.5,2.26c0.32,-0.16 0.72,-0.29 0.95,-0.11c0.22,0.18 0.29,0.66 0.14,0.92c-0.17,0.29 -0.6,0.31 -0.98,0.28c-0.44,-0.04 -0.8,-0.16 -1.17,-0.28c0.31,-0.29 0.61,-0.58 1.06,-0.81zm-3.28,1.47c0.17,0.1 0.21,0.35 0.16,0.46c-0.06,0.12 -0.22,0.08 -0.33,0.11c-0.05,0.02 -0.09,0.05 -0.12,0.08c-0.14,0.16 -0.06,0.5 0.12,0.63c0.1,0.07 0.23,0.08 0.36,0.08c0.28,-0.01 0.52,-0.07 0.8,-0.17c0.2,-0.07 0.41,-0.16 0.55,-0.08c0.1,0.05 0.17,0.19 0.2,0.36c0.03,0.19 0.02,0.42 -0.13,0.52c-0.04,0.03 -0.09,0.05 -0.13,0.08c-0.19,0.13 -0.13,0.44 0.03,0.57c0.2,0.15 0.54,0.06 0.85,-0.05c0.65,-0.22 1.12,-0.5 1.62,-0.66c0.51,-0.16 1.06,-0.19 1.5,-0.33c0.29,-0.1 0.54,-0.24 0.77,-0.45c0.26,-0.25 0.49,-0.58 0.72,-0.9c0.07,-0.09 0.13,-0.19 0.21,-0.27c0.01,0.28 0.02,0.56 0.01,0.82c-0.01,0.43 -0.06,0.83 -0.2,1.21c-0.18,0.49 -0.52,0.96 -1,1.16c-0.07,0.03 -0.13,0.05 -0.2,0.06c-0.2,0 -0.38,-0.21 -0.52,-0.37c-0.14,-0.16 -0.25,-0.25 -0.41,-0.35c-0.14,-0.08 -0.33,-0.15 -0.44,-0.09c-0.1,0.07 -0.15,0.24 -0.2,0.41c-0.07,0.2 -0.13,0.38 -0.25,0.51c-0.19,0.21 -0.51,0.33 -0.84,0.39c-0.84,0.15 -1.73,-0.07 -2.36,-0.56c-0.61,-0.47 -0.99,-1.19 -1.29,-1.91c-0.17,-0.38 -0.31,-0.76 -0.45,-1.14c0.5,-0.16 0.8,-0.21 0.97,-0.12zm11.53,-11.87c-0.48,0 -0.87,-0.39 -0.87,-0.86c0,-0.48 0.39,-0.87 0.87,-0.87c0.47,0 0.86,0.39 0.86,0.87c0,0.47 -0.39,0.86 -0.86,0.86zm1,-16.11c0,-0.47 0.39,-0.86 0.86,-0.86c0.48,0 0.87,0.39 0.87,0.86c0,0.48 -0.39,0.87 -0.87,0.87c-0.47,0 -0.86,-0.39 -0.86,-0.87zm1.59,11.74c-0.47,0 -0.86,-0.39 -0.86,-0.87c0,-0.47 0.39,-0.86 0.86,-0.86c0.48,0 0.87,0.39 0.87,0.86c0,0.48 -0.39,0.87 -0.87,0.87zm0.71,-5.59c-0.48,0 -0.87,-0.38 -0.87,-0.86s0.39,-0.86 0.87,-0.86c0.47,0 0.86,0.38 0.86,0.86s-0.39,0.86 -0.86,0.86zm-7.19,2.12c0.38,0.04 0.84,-0.12 1.11,-0.46c0.32,-0.41 0.35,-1.07 0.08,-1.45c-0.21,-0.3 -0.62,-0.42 -1.02,-0.54c0.43,-0.33 0.91,-0.54 1.41,-0.55c0.78,-0.02 1.58,0.45 2.01,1.1c0.59,0.9 0.45,2.13 -0.19,2.92c-0.66,0.82 -1.86,1.16 -2.91,1.12c-1.15,-0.05 -2.12,-0.55 -2.88,-1.67c-0.52,-0.77 -0.93,-1.83 -1.25,-2.36c-0.04,-0.06 -0.07,-0.11 -0.11,-0.12c-0.13,0 -0.3,0.6 -0.52,1.07c-0.24,0.5 -0.54,0.82 -0.93,1.07c-0.4,0.25 -0.9,0.42 -1.33,0.29c1.57,-2.29 1.93,-3.52 1.77,-4.79c-0.06,-0.48 -0.19,-0.96 -0.38,-1.47c-0.44,-1.16 -1.19,-2.44 -2.13,-3.35c-1.01,-0.98 -2.24,-1.54 -3.8,-1.78c-0.74,-0.11 -1.55,-0.14 -1.96,0.33c-0.17,0.2 -0.27,0.49 -0.45,0.7c-0.35,0.43 -1,0.57 -1.55,0.87c-0.08,-0.37 -0.08,-0.72 -0.32,-0.98c-0.24,-0.28 -0.75,-0.47 -1.12,-0.37c-0.26,0.08 -0.45,0.29 -0.66,0.41c-0.44,0.26 -0.95,0.12 -1.59,0c-1.01,-0.2 -2.35,-0.36 -2.45,-0.51c-0.13,-0.2 1.81,-0.39 3.16,-0.55c1.06,-0.12 1.75,-0.21 2.46,-0.57c0.57,-0.29 1.14,-0.75 1.75,-1c0.45,-0.19 0.91,-0.27 1.4,-0.3c1.15,-0.06 2.4,0.19 3.52,0.62c1.84,0.72 3.32,1.94 4.45,3.52c0.69,0.96 1.25,2.06 1.63,3.16c0.42,1.21 0.62,2.42 1.18,3.8c0.34,0.85 0.83,1.76 1.62,1.84zm-0.41,-1.2c0,-0.33 0.27,-0.6 0.6,-0.6s0.6,0.27 0.6,0.6s-0.27,0.6 -0.6,0.6s-0.6,-0.27 -0.6,-0.6zm0.31,-6.7c-0.44,0 -0.79,-0.35 -0.79,-0.78s0.35,-0.78 0.79,-0.78c0.43,0 0.78,0.35 0.78,0.78s-0.35,0.78 -0.78,0.78zm-5.05,10.41c-0.13,0.55 -0.21,1.14 -0.1,1.68c0.11,0.51 0.4,0.99 0.69,1.46c-0.41,0.19 -0.82,0.38 -1.22,0.59c-0.75,0.41 -1.47,0.93 -1.98,1.59c-0.55,0.7 -0.86,1.56 -1.17,2.43c-0.09,-0.63 -0.19,-1.26 -0.41,-1.94c-0.14,-0.44 -0.34,-0.89 -0.69,-1.09c-0.34,-0.19 -0.84,-0.12 -1.29,0.01c-0.57,0.16 -1.06,0.42 -1.58,0.4c-0.28,-0.02 -0.57,-0.12 -0.86,-0.21c-0.41,-0.13 -0.81,-0.26 -1.19,-0.44c-1.18,-0.57 -2.08,-1.7 -2.73,-2.93c-0.83,-1.58 -1.24,-3.33 -1.06,-5.02c0.08,-0.79 0.28,-1.57 0.49,-2.34c-0.04,0.85 -0.07,1.7 0.03,2.54c0.1,0.81 0.34,1.61 0.71,2.35c0.49,0.98 1.22,1.86 2.14,2.4c1.37,0.8 3.18,0.82 4.78,0.41c1.29,-0.33 2.45,-0.93 3.5,-1.69c0.91,-0.66 1.75,-1.44 2.58,-2.21c-0.24,0.65 -0.48,1.31 -0.64,2.01zm-0.44,8.69c-0.39,0 -0.71,-0.32 -0.71,-0.72c0,-0.39 0.32,-0.71 0.71,-0.71c0.4,0 0.72,0.32 0.72,0.71c0,0.4 -0.32,0.72 -0.72,0.72zm-9.16,-106.78c-0.88,-2.54 -2.04,-4.95 -3.2,-7.36c1.57,1.27 3.13,2.54 4.59,3.94c2.32,2.25 4.37,4.85 5.65,7.81c1.71,3.91 2.05,8.45 1.4,12.7c-0.69,4.47 -2.51,8.62 -4.1,12.83c-2.43,6.44 -4.35,13.04 -6.26,19.63c-0.37,-0.21 -0.74,-0.41 -1.11,-0.61c1,-4.32 -0.03,-8.64 -2.86,-12.05c1.08,-3.51 2.15,-7.03 3.29,-10.53c1.22,-3.76 2.5,-7.5 3.37,-11.37c0.45,-2 0.79,-4.04 0.82,-6.08c0.04,-3.01 -0.6,-6.04 -1.59,-8.91zm-2.54,88.39c0.83,-0.01 1.65,-0.35 2.4,-0.76c0.52,-0.29 1.01,-0.62 1.57,-0.78c0.38,-0.12 0.8,-0.15 1.21,-0.19c0.46,-0.05 0.91,-0.12 1.39,-0.03c0.26,0.06 0.54,0.16 0.76,0.08c0.22,-0.07 0.4,-0.31 0.61,-0.42c0.27,-0.14 0.6,-0.09 0.93,-0.03c-0.22,0.25 -0.45,0.5 -0.4,0.74c0.03,0.15 0.15,0.29 0.26,0.43c0.46,0.56 0.82,1.07 1.13,1.66c0.42,0.77 0.76,1.67 0.7,2.52c-0.05,0.77 -0.45,1.5 -0.84,2.22c-0.75,-0.61 -1.49,-1.23 -2.39,-1.65c-1.22,-0.58 -2.7,-0.82 -3.91,-0.33c-0.97,0.4 -1.77,1.26 -2.17,2.27c-0.32,0.79 -0.4,1.66 -0.28,2.42c0.11,0.63 0.36,1.17 0.61,1.72c-0.4,-0.53 -0.8,-1.06 -1.11,-1.69c-0.52,-1.08 -0.76,-2.48 -0.43,-3.71c0.45,-1.67 1.96,-3.01 3.66,-3.69c1.18,-0.47 2.47,-0.62 3.57,-0.2c0.67,0.25 1.27,0.7 1.87,1.15c-0.51,-0.96 -1.03,-1.92 -1.89,-2.37c-0.82,-0.44 -1.97,-0.41 -2.91,-0.07c-0.96,0.35 -1.69,1.03 -2.59,1.42c-1.03,0.43 -2.28,0.48 -3.31,0.05c-0.86,-0.36 -1.56,-1.04 -2.06,-1.82c-0.44,-0.67 -0.72,-1.41 -0.87,-2.23c0.35,0.56 0.69,1.13 1.16,1.63c0.85,0.94 2.11,1.67 3.33,1.66zm4.35,4.27c-0.92,0.16 -1.83,0.7 -2.4,1.51c-0.51,0.74 -0.74,1.7 -0.5,2.55c0.29,1.03 1.25,1.89 2.29,2.19c1.63,0.49 3.43,-0.38 4.77,-1.52c1.19,-1.02 2.01,-2.25 2.82,-3.48c-0.48,0.3 -0.95,0.59 -1.42,0.62c-0.73,0.04 -1.43,-0.56 -2.17,-1.03c-1.08,-0.67 -2.25,-1.04 -3.39,-0.84zm5.42,2.47c-0.82,0.71 -1.64,1.41 -2.68,2c-1.07,0.6 -2.39,1.07 -3.43,0.5c-0.61,-0.33 -1.13,-1.02 -1.15,-1.68c-0.01,-0.69 0.54,-1.34 1.2,-1.76c0.97,-0.61 2.19,-0.73 3.11,-0.22c0.52,0.28 0.94,0.77 1.47,0.99c0.44,0.18 0.96,0.17 1.48,0.17zm-2.39,9.08c0,0.56 -0.46,1.03 -1.03,1.03s-1.03,-0.47 -1.03,-1.03c0,-0.57 0.46,-1.04 1.03,-1.04s1.03,0.47 1.03,1.04zm-3.5,-28.77l-7.39,-4.14l0.25,-3.29l8.18,4.58c-0.19,1 -0.54,1.96 -1.04,2.85zm1.53,20.42c0,0.38 -0.31,0.69 -0.69,0.69s-0.69,-0.31 -0.69,-0.69s0.31,-0.69 0.69,-0.69s0.69,0.31 0.69,0.69zm-11.6,-100.47c-0.73,-2.16 -1.93,-4.16 -3.13,-6.15c1.6,1.33 3.19,2.66 4.68,4.14c1.95,1.94 3.71,4.15 4.76,6.68c0.68,1.6 1.07,3.34 1.13,5.09c0.06,1.56 -0.13,3.11 -0.46,4.64c-0.44,2.08 -1.13,4.1 -1.81,6.11c-1.15,3.44 -2.29,6.87 -3.43,10.31c-0.84,2.53 -1.68,5.07 -2.52,7.6c-1.91,-1.13 -4.04,-1.79 -6.26,-1.92c1.01,-3.07 2.02,-6.13 2.99,-9.2c1.3,-4.1 2.54,-8.21 3.82,-12.37c0.59,-1.89 1.18,-3.8 1.34,-5.75c0.1,-1.19 0.03,-2.39 -0.07,-3.59c-0.17,-1.9 -0.44,-3.8 -1.04,-5.59zm7.1,91.64c-0.35,0 -0.64,-0.28 -0.64,-0.63s0.29,-0.64 0.64,-0.64s0.63,0.29 0.63,0.64s-0.28,0.63 -0.63,0.63zm-1.92,-36.36l2.03,0.76l-1.34,17.38l-2.88,-1.61l0.8,-10.35l-7.9,-4.43l0.25,-3.29l7.65,4.28c0.57,-0.86 1.03,-1.78 1.39,-2.74zm-0.14,28.96c-0.98,0.34 -2.01,0.51 -3.04,0.5l0.6,-7.82l2.88,1.61l-0.44,5.71zm-7.68,-42.15l0.25,-3.61c0.43,0.2 0.84,0.42 1.24,0.66c6.23,3.71 8.26,11.77 4.55,18l-2.86,-1.65c2.77,-4.58 1.36,-10.54 -3.18,-13.4zm-1.55,25.85l-3.06,-1.67c2.73,-2.74 6.53,-4.13 10.38,-3.82l-0.25,3.29c-2.56,-0.22 -5.09,0.57 -7.07,2.2zm6.31,7.66l-2.88,-1.61l0.57,-7.38c0.98,-0.24 2,-0.33 3.02,-0.24l-0.71,9.23zm-8.51,-3.71l8.43,4.72l-0.25,3.29l-2.73,-1.53l-6.18,-3.46c0.05,-0.78 0.21,-1.55 0.45,-2.29c0.09,-0.25 0.18,-0.49 0.28,-0.73zm6.53,-16.97l-7.4,-4.14l0.26,-3.29l8.17,4.58c-0.18,1 -0.53,1.97 -1.03,2.85zm-13.97,7.16c-6.44,-3.25 -9.03,-11.11 -5.78,-17.56l2.87,1.62c-0.18,0.38 -0.34,0.77 -0.47,1.16c-1.55,4.62 0.55,9.79 5.06,11.97c0.21,0.1 0.42,0.19 0.63,0.28l0.46,-5.96l2.88,1.62l-0.39,5.01c2.22,0.16 4.43,-0.44 6.26,-1.7l3.1,1.75c-2.64,2.32 -6.1,3.49 -9.61,3.24l-0.18,2.41l7.93,4.46l-0.25,3.29l-10.82,-6.05l0.36,-4.72c-0.7,-0.21 -1.39,-0.49 -2.05,-0.82zm6.15,-57.35c0.21,-1.51 0.28,-3.06 0.02,-4.54c-0.3,-1.65 -0.99,-3.21 -1.63,-4.77c-0.45,-1.11 -0.88,-2.23 -1.3,-3.35c1.27,0.93 2.55,1.86 3.67,2.97c1.63,1.61 2.94,3.59 3.69,5.77c0.7,2.07 0.9,4.31 0.67,6.46c-0.23,2.1 -0.88,4.11 -1.54,6.12c-1.69,5.12 -3.48,10.16 -5.16,15.25c-0.93,2.81 -1.83,5.63 -2.73,8.46c-4.01,1.24 -7.12,4.06 -8.75,7.94c-0.08,-0.21 -0.13,-0.42 -0.13,-0.65c0,-0.04 0,-0.08 0.02,-0.13c3.22,-9.83 6.45,-19.66 10.12,-29.39c1.25,-3.31 2.55,-6.62 3.05,-10.14zm3.62,43.56l-2.88,-1.61l0.71,-9.29c1.01,0.12 2,0.37 2.95,0.72l-0.78,10.18zm-0.36,48.71c0.37,0 0.68,0.31 0.68,0.68s-0.31,0.68 -0.68,0.68s-0.68,-0.31 -0.68,-0.68s0.31,-0.68 0.68,-0.68zm-0.47,-37.88c-0.98,0.33 -2.01,0.5 -3.05,0.49l0.61,-7.82l2.88,1.61l-0.44,5.72zm-1.92,-21.8l-0.25,3.29c-2.55,-0.21 -5.08,0.58 -7.06,2.2l-3.06,-1.67c2.73,-2.73 6.52,-4.13 10.37,-3.82zm-3.32,4.17c0.99,-0.25 2.01,-0.34 3.02,-0.25l-0.71,9.23l-2.88,-1.61l0.57,-7.37zm-6.93,8.29c0.05,-0.78 0.21,-1.55 0.45,-2.29c0.09,-0.25 0.18,-0.49 0.28,-0.73l8.44,4.72l-0.26,3.29l-2.72,-1.52l-6.19,-3.47zm-0.53,-8.21l6.59,3.68l-0.26,3.29l-8.09,-4.52c0.5,-0.88 1.09,-1.7 1.76,-2.45zm-9.36,-41.88c-0.13,-0.45 0.07,-0.88 0.5,-1.08s0.88,-0.07 1.14,0.33c0.13,-0.04 0.25,-0.07 0.38,-0.11c-0.3,-1.02 -0.53,-2.06 -0.63,-3.13c-0.15,-1.54 -0.03,-3.13 0.43,-4.59c0.39,-1.23 1.03,-2.37 1.67,-3.5c3.97,8.94 7.94,17.88 11.91,26.82c-1.25,3.33 -2.46,6.67 -3.63,10.02c-0.25,-1.2 -0.51,-2.39 -0.85,-3.56c-0.06,-0.25 -0.14,-0.51 -0.22,-0.76c-0.35,-1.11 -0.78,-2.19 -1.21,-3.27c-0.85,-2.15 -1.67,-4.3 -2.57,-6.43c-0.79,-1.85 -1.64,-3.69 -2.48,-5.52c-0.26,-0.57 -0.52,-1.14 -0.77,-1.72c-0.43,-0.97 -0.83,-1.95 -1.19,-2.96c-0.11,-0.3 -0.22,-0.61 -0.31,-0.92c-0.13,0.04 -0.26,0.08 -0.38,0.12c0,0.48 -0.31,0.84 -0.78,0.9c-0.47,0.07 -0.87,-0.18 -1.01,-0.64zm8.83,32.45c-3.84,-9.29 -7.68,-18.59 -11.52,-27.88c0.64,-1.78 1.28,-3.55 1.92,-5.33c0.67,1.64 1.34,3.28 2.02,4.93c0.13,-0.06 0.27,-0.12 0.4,-0.17c0,-0.45 0.28,-0.79 0.72,-0.89c0.43,-0.1 0.83,0.1 1.02,0.51c0.19,0.4 0.08,0.83 -0.28,1.1c-0.35,0.27 -0.8,0.26 -1.14,-0.03c-0.14,0.06 -0.29,0.12 -0.43,0.18c0.57,1.38 1.14,2.76 1.71,4.13c0.14,-0.05 0.28,-0.11 0.42,-0.17c-0.08,-0.45 0.15,-0.85 0.58,-1.01s0.86,-0.01 1.1,0.39c0.23,0.39 0.16,0.84 -0.19,1.15c-0.34,0.3 -0.8,0.31 -1.16,0.03c-0.17,0.07 -0.33,0.14 -0.5,0.21c0.46,1.09 0.92,2.18 1.38,3.28c0.13,-0.06 0.26,-0.11 0.38,-0.16c-0.09,-0.47 0.14,-0.89 0.59,-1.05s0.89,0.02 1.11,0.44c0.22,0.43 0.11,0.89 -0.28,1.16c-0.39,0.28 -0.87,0.23 -1.19,-0.12c-0.14,0.06 -0.28,0.12 -0.42,0.17c0.55,1.29 1.1,2.58 1.66,3.86c0.12,-0.05 0.24,-0.1 0.36,-0.15c0,-0.46 0.3,-0.81 0.75,-0.9c0.45,-0.08 0.85,0.15 1.01,0.58c0.17,0.43 0.02,0.86 -0.38,1.1c-0.39,0.23 -0.84,0.17 -1.15,-0.18c-0.11,0.05 -0.22,0.1 -0.33,0.15c0.08,0.17 0.15,0.34 0.23,0.52c0.5,1.14 1.01,2.28 1.44,3.44c0.07,-0.02 0.14,-0.05 0.21,-0.07c-0.07,-0.45 0.15,-0.85 0.58,-1.01s0.86,-0.01 1.1,0.38c0.04,0.08 0.08,0.16 0.1,0.24c0.09,0.32 0,0.66 -0.27,0.91c-0.34,0.3 -0.79,0.32 -1.16,0.05c-0.11,0.04 -0.22,0.08 -0.33,0.11c0.11,0.33 0.21,0.66 0.31,0.99c0.25,0.84 0.44,1.7 0.58,2.57c0.06,-0.01 0.13,-0.02 0.2,-0.03c0.07,-0.44 0.4,-0.74 0.85,-0.76c0.44,-0.02 0.8,0.24 0.92,0.67c0.12,0.42 -0.06,0.83 -0.45,1.04s-0.83,0.13 -1.12,-0.21c-0.1,0.01 -0.2,0.03 -0.3,0.04c0.01,0.08 0.02,0.17 0.03,0.25c0.12,1.05 0.16,2.11 -0.08,3.11c-0.2,0.85 -0.6,1.64 -1,2.43zm-2.4,8.39c-0.03,1.27 -0.34,2.53 -0.66,3.79c-4.12,-9.72 -8.25,-19.43 -12.37,-29.15c0.7,-1.85 1.41,-3.71 2.12,-5.56c0.67,1.62 1.34,3.24 2.02,4.86c0.17,-0.08 0.35,-0.15 0.52,-0.22c-0.07,-0.46 0.16,-0.85 0.59,-1.01c0.44,-0.16 0.87,0 1.1,0.4c0.23,0.41 0.15,0.86 -0.21,1.16c-0.35,0.29 -0.81,0.29 -1.17,-0.01c-0.2,0.09 -0.39,0.17 -0.59,0.25c0.48,1.17 0.97,2.33 1.46,3.49c0.19,-0.07 0.37,-0.15 0.56,-0.23c-0.06,-0.47 0.2,-0.86 0.65,-0.99c0.45,-0.12 0.88,0.07 1.07,0.5c0.2,0.42 0.08,0.87 -0.31,1.13c-0.39,0.27 -0.86,0.21 -1.18,-0.13c-0.19,0.08 -0.38,0.16 -0.57,0.24c0.3,0.71 0.59,1.41 0.89,2.11c0.27,0.63 0.54,1.26 0.81,1.88c0.17,-0.07 0.34,-0.14 0.51,-0.21c-0.14,-0.45 0.04,-0.89 0.47,-1.09c0.42,-0.21 0.88,-0.09 1.14,0.3c0.27,0.39 0.22,0.86 -0.12,1.18c-0.35,0.32 -0.82,0.34 -1.19,0.05c-0.2,0.09 -0.4,0.17 -0.6,0.26c0.55,1.28 1.1,2.56 1.66,3.84c0.16,-0.07 0.32,-0.14 0.47,-0.21c-0.08,-0.44 0.13,-0.84 0.55,-1.01s0.85,-0.04 1.1,0.34s0.21,0.83 -0.11,1.15c-0.33,0.32 -0.78,0.36 -1.15,0.11c-0.2,0.08 -0.39,0.17 -0.58,0.25c0.01,0.03 0.03,0.06 0.04,0.1c0.52,1.18 1.04,2.37 1.48,3.58c0.11,-0.04 0.23,-0.09 0.35,-0.13c0,-0.46 0.29,-0.81 0.74,-0.89c0.45,-0.09 0.85,0.14 1.02,0.57c0.16,0.43 0.01,0.86 -0.38,1.1c-0.39,0.24 -0.85,0.17 -1.15,-0.17c-0.13,0.04 -0.25,0.08 -0.37,0.12c0.14,0.43 0.26,0.86 0.37,1.29c0.24,0.94 0.4,1.9 0.56,2.86c0.1,-0.01 0.21,-0.03 0.32,-0.05c0,-0.46 0.29,-0.81 0.74,-0.89c0.46,-0.08 0.86,0.14 1.02,0.57s0.01,0.86 -0.38,1.1c-0.39,0.24 -0.85,0.17 -1.15,-0.17c-0.15,0.02 -0.31,0.04 -0.46,0.07c0.01,0.07 0.03,0.15 0.04,0.22c0.17,1.09 0.35,2.17 0.33,3.25zm-9.92,-30.53c0,-0.5 0.41,-0.91 0.91,-0.91c0.51,0 0.91,0.41 0.91,0.91s-0.4,0.91 -0.91,0.91c-0.5,0 -0.91,-0.41 -0.91,-0.91z"/>
 </g>
</svg>